<mxfile host="app.diagrams.net" modified="2023-06-23T21:55:05.143Z" agent="Mozilla/5.0 (Windows NT 10.0; Win64; x64) AppleWebKit/537.36 (KHTML, like Gecko) Chrome/114.0.0.0 Safari/537.36 Edg/114.0.1823.51" etag="2aPxh66NN0Xee2_MBXdF" version="21.5.0" type="device">
  <diagram id="jrBH5OZ_Qzha5HGOc177" name="Page-1">
    <mxGraphModel dx="2890" dy="2379" grid="1" gridSize="10" guides="1" tooltips="1" connect="1" arrows="1" fold="1" page="1" pageScale="1" pageWidth="827" pageHeight="1169" math="0" shadow="0">
      <root>
        <mxCell id="0" />
        <mxCell id="1" parent="0" />
        <mxCell id="H49a0Rtpe8xY1TAbGnGr-1" value="MOVIE" style="rounded=0;whiteSpace=wrap;html=1;" parent="1" vertex="1">
          <mxGeometry x="-245" y="-941" width="100" height="50" as="geometry" />
        </mxCell>
        <mxCell id="H49a0Rtpe8xY1TAbGnGr-3" value="genre" style="ellipse;whiteSpace=wrap;html=1;" parent="1" vertex="1">
          <mxGeometry x="-280" y="-1071" width="60" height="30" as="geometry" />
        </mxCell>
        <mxCell id="H49a0Rtpe8xY1TAbGnGr-4" value="country" style="ellipse;whiteSpace=wrap;html=1;" parent="1" vertex="1">
          <mxGeometry x="-215" y="-1071" width="90" height="30" as="geometry" />
        </mxCell>
        <mxCell id="H49a0Rtpe8xY1TAbGnGr-5" value="production" style="ellipse;whiteSpace=wrap;html=1;" parent="1" vertex="1">
          <mxGeometry x="-115" y="-1061" width="70" height="30" as="geometry" />
        </mxCell>
        <mxCell id="H49a0Rtpe8xY1TAbGnGr-7" value="name" style="ellipse;whiteSpace=wrap;html=1;" parent="1" vertex="1">
          <mxGeometry x="-385" y="-991" width="60" height="40" as="geometry" />
        </mxCell>
        <mxCell id="H49a0Rtpe8xY1TAbGnGr-8" value="premiere" style="ellipse;whiteSpace=wrap;html=1;" parent="1" vertex="1">
          <mxGeometry x="-370" y="-1041" width="100" height="40" as="geometry" />
        </mxCell>
        <mxCell id="H49a0Rtpe8xY1TAbGnGr-10" value="" style="endArrow=none;html=1;exitX=0.5;exitY=0;exitDx=0;exitDy=0;entryX=0.791;entryY=0.015;entryDx=0;entryDy=0;entryPerimeter=0;" parent="1" source="9iTavqI95lWbE_RFoItm-1" target="H49a0Rtpe8xY1TAbGnGr-55" edge="1">
          <mxGeometry width="50" height="50" relative="1" as="geometry">
            <mxPoint x="-20.00233047033629" y="-891.6066017177986" as="sourcePoint" />
            <mxPoint x="67.31999999999994" y="-896" as="targetPoint" />
          </mxGeometry>
        </mxCell>
        <mxCell id="H49a0Rtpe8xY1TAbGnGr-11" value="" style="endArrow=none;html=1;entryX=0;entryY=0;entryDx=0;entryDy=0;exitX=1;exitY=0.5;exitDx=0;exitDy=0;" parent="1" source="H49a0Rtpe8xY1TAbGnGr-7" target="H49a0Rtpe8xY1TAbGnGr-1" edge="1">
          <mxGeometry width="50" height="50" relative="1" as="geometry">
            <mxPoint x="-65" y="-731" as="sourcePoint" />
            <mxPoint x="-15" y="-781" as="targetPoint" />
          </mxGeometry>
        </mxCell>
        <mxCell id="H49a0Rtpe8xY1TAbGnGr-12" value="" style="endArrow=none;html=1;entryX=0.25;entryY=0;entryDx=0;entryDy=0;exitX=1;exitY=0.5;exitDx=0;exitDy=0;" parent="1" source="H49a0Rtpe8xY1TAbGnGr-8" target="H49a0Rtpe8xY1TAbGnGr-1" edge="1">
          <mxGeometry width="50" height="50" relative="1" as="geometry">
            <mxPoint x="-215" y="-961" as="sourcePoint" />
            <mxPoint x="-85" y="-781" as="targetPoint" />
          </mxGeometry>
        </mxCell>
        <mxCell id="H49a0Rtpe8xY1TAbGnGr-14" value="" style="endArrow=none;html=1;entryX=0.5;entryY=1;entryDx=0;entryDy=0;exitX=0.5;exitY=0;exitDx=0;exitDy=0;" parent="1" source="H49a0Rtpe8xY1TAbGnGr-1" target="H49a0Rtpe8xY1TAbGnGr-3" edge="1">
          <mxGeometry width="50" height="50" relative="1" as="geometry">
            <mxPoint x="-135" y="-731" as="sourcePoint" />
            <mxPoint x="-85" y="-781" as="targetPoint" />
          </mxGeometry>
        </mxCell>
        <mxCell id="H49a0Rtpe8xY1TAbGnGr-15" value="" style="endArrow=none;html=1;entryX=0.5;entryY=1;entryDx=0;entryDy=0;exitX=0.644;exitY=0.029;exitDx=0;exitDy=0;exitPerimeter=0;" parent="1" source="H49a0Rtpe8xY1TAbGnGr-1" target="H49a0Rtpe8xY1TAbGnGr-4" edge="1">
          <mxGeometry width="50" height="50" relative="1" as="geometry">
            <mxPoint x="-135" y="-731" as="sourcePoint" />
            <mxPoint x="-85" y="-781" as="targetPoint" />
          </mxGeometry>
        </mxCell>
        <mxCell id="H49a0Rtpe8xY1TAbGnGr-16" value="" style="endArrow=none;html=1;entryX=0;entryY=1;entryDx=0;entryDy=0;exitX=0.873;exitY=0.029;exitDx=0;exitDy=0;exitPerimeter=0;" parent="1" source="H49a0Rtpe8xY1TAbGnGr-1" target="H49a0Rtpe8xY1TAbGnGr-5" edge="1">
          <mxGeometry width="50" height="50" relative="1" as="geometry">
            <mxPoint x="-135" y="-731" as="sourcePoint" />
            <mxPoint x="-85" y="-781" as="targetPoint" />
          </mxGeometry>
        </mxCell>
        <mxCell id="H49a0Rtpe8xY1TAbGnGr-28" value="ACTOR" style="rounded=0;whiteSpace=wrap;html=1;" parent="1" vertex="1">
          <mxGeometry x="-155" y="-501" width="100" height="50" as="geometry" />
        </mxCell>
        <mxCell id="H49a0Rtpe8xY1TAbGnGr-29" value="performed_by" style="rhombus;whiteSpace=wrap;html=1;rotation=-90;" parent="1" vertex="1">
          <mxGeometry x="-185" y="-781" width="90" height="80" as="geometry" />
        </mxCell>
        <mxCell id="H49a0Rtpe8xY1TAbGnGr-30" value="" style="endArrow=none;html=1;exitX=1;exitY=0.5;exitDx=0;exitDy=0;" parent="1" source="H49a0Rtpe8xY1TAbGnGr-29" edge="1">
          <mxGeometry width="50" height="50" relative="1" as="geometry">
            <mxPoint x="-135" y="-731" as="sourcePoint" />
            <mxPoint x="-160" y="-890" as="targetPoint" />
            <Array as="points" />
          </mxGeometry>
        </mxCell>
        <mxCell id="H49a0Rtpe8xY1TAbGnGr-31" value="" style="endArrow=none;html=1;exitX=0.25;exitY=0;exitDx=0;exitDy=0;entryX=0;entryY=0.5;entryDx=0;entryDy=0;" parent="1" source="H49a0Rtpe8xY1TAbGnGr-28" target="H49a0Rtpe8xY1TAbGnGr-29" edge="1">
          <mxGeometry width="50" height="50" relative="1" as="geometry">
            <mxPoint x="-135" y="-731" as="sourcePoint" />
            <mxPoint x="-85" y="-781" as="targetPoint" />
          </mxGeometry>
        </mxCell>
        <mxCell id="H49a0Rtpe8xY1TAbGnGr-33" value="M" style="text;html=1;align=center;verticalAlign=middle;resizable=0;points=[];autosize=1;strokeColor=none;" parent="1" vertex="1">
          <mxGeometry x="-195" y="-891" width="30" height="20" as="geometry" />
        </mxCell>
        <mxCell id="H49a0Rtpe8xY1TAbGnGr-35" value="earning" style="ellipse;whiteSpace=wrap;html=1;" parent="1" vertex="1">
          <mxGeometry x="-295" y="-731" width="70" height="30" as="geometry" />
        </mxCell>
        <mxCell id="H49a0Rtpe8xY1TAbGnGr-36" value="movie_id" style="ellipse;whiteSpace=wrap;html=1;" parent="1" vertex="1">
          <mxGeometry x="-275" y="-781" width="60" height="40" as="geometry" />
        </mxCell>
        <mxCell id="H49a0Rtpe8xY1TAbGnGr-37" value="actor_id" style="ellipse;whiteSpace=wrap;html=1;" parent="1" vertex="1">
          <mxGeometry x="-275" y="-691" width="60" height="40" as="geometry" />
        </mxCell>
        <mxCell id="H49a0Rtpe8xY1TAbGnGr-38" value="" style="endArrow=none;html=1;entryX=1;entryY=0.5;entryDx=0;entryDy=0;exitX=1;exitY=0;exitDx=0;exitDy=0;" parent="1" source="H49a0Rtpe8xY1TAbGnGr-29" target="H49a0Rtpe8xY1TAbGnGr-36" edge="1">
          <mxGeometry width="50" height="50" relative="1" as="geometry">
            <mxPoint x="-135" y="-731" as="sourcePoint" />
            <mxPoint x="-85" y="-781" as="targetPoint" />
          </mxGeometry>
        </mxCell>
        <mxCell id="H49a0Rtpe8xY1TAbGnGr-39" value="" style="endArrow=none;html=1;exitX=0.397;exitY=0.099;exitDx=0;exitDy=0;entryX=1;entryY=0;entryDx=0;entryDy=0;exitPerimeter=0;" parent="1" source="H49a0Rtpe8xY1TAbGnGr-29" target="H49a0Rtpe8xY1TAbGnGr-35" edge="1">
          <mxGeometry width="50" height="50" relative="1" as="geometry">
            <mxPoint x="-135" y="-731" as="sourcePoint" />
            <mxPoint x="-85" y="-781" as="targetPoint" />
          </mxGeometry>
        </mxCell>
        <mxCell id="H49a0Rtpe8xY1TAbGnGr-40" value="" style="endArrow=none;html=1;exitX=1;exitY=0;exitDx=0;exitDy=0;entryX=0;entryY=0;entryDx=0;entryDy=0;" parent="1" source="H49a0Rtpe8xY1TAbGnGr-37" target="H49a0Rtpe8xY1TAbGnGr-29" edge="1">
          <mxGeometry width="50" height="50" relative="1" as="geometry">
            <mxPoint x="-135" y="-731" as="sourcePoint" />
            <mxPoint x="-85" y="-781" as="targetPoint" />
          </mxGeometry>
        </mxCell>
        <mxCell id="H49a0Rtpe8xY1TAbGnGr-43" value="firstname" style="ellipse;whiteSpace=wrap;html=1;" parent="1" vertex="1">
          <mxGeometry x="35" y="-441" width="90" height="30" as="geometry" />
        </mxCell>
        <mxCell id="H49a0Rtpe8xY1TAbGnGr-44" value="lastname" style="ellipse;whiteSpace=wrap;html=1;" parent="1" vertex="1">
          <mxGeometry x="5" y="-401" width="70" height="30" as="geometry" />
        </mxCell>
        <mxCell id="H49a0Rtpe8xY1TAbGnGr-46" value="birth_date" style="ellipse;whiteSpace=wrap;html=1;" parent="1" vertex="1">
          <mxGeometry x="-235" y="-421" width="70" height="30" as="geometry" />
        </mxCell>
        <mxCell id="H49a0Rtpe8xY1TAbGnGr-47" value="nickname" style="ellipse;whiteSpace=wrap;html=1;" parent="1" vertex="1">
          <mxGeometry x="-65" y="-401" width="60" height="30" as="geometry" />
        </mxCell>
        <mxCell id="H49a0Rtpe8xY1TAbGnGr-48" value="agent_code" style="ellipse;whiteSpace=wrap;html=1;" parent="1" vertex="1">
          <mxGeometry x="-195" y="-371" width="80" height="40" as="geometry" />
        </mxCell>
        <mxCell id="H49a0Rtpe8xY1TAbGnGr-55" value="FILMS" style="rounded=0;whiteSpace=wrap;html=1;" parent="1" vertex="1">
          <mxGeometry x="85" y="-941" width="100" height="50" as="geometry" />
        </mxCell>
        <mxCell id="H49a0Rtpe8xY1TAbGnGr-56" value="" style="rhombus;whiteSpace=wrap;html=1;" parent="1" vertex="1">
          <mxGeometry x="-65" y="-936" width="60" height="40" as="geometry" />
        </mxCell>
        <mxCell id="H49a0Rtpe8xY1TAbGnGr-57" value="" style="endArrow=none;html=1;entryX=1;entryY=0.5;entryDx=0;entryDy=0;exitX=0;exitY=0.5;exitDx=0;exitDy=0;" parent="1" source="H49a0Rtpe8xY1TAbGnGr-56" target="H49a0Rtpe8xY1TAbGnGr-1" edge="1">
          <mxGeometry width="50" height="50" relative="1" as="geometry">
            <mxPoint x="-75" y="-721" as="sourcePoint" />
            <mxPoint x="-25" y="-771" as="targetPoint" />
          </mxGeometry>
        </mxCell>
        <mxCell id="H49a0Rtpe8xY1TAbGnGr-58" value="" style="endArrow=none;html=1;entryX=1;entryY=0.5;entryDx=0;entryDy=0;exitX=0;exitY=0.5;exitDx=0;exitDy=0;" parent="1" source="H49a0Rtpe8xY1TAbGnGr-55" target="H49a0Rtpe8xY1TAbGnGr-56" edge="1">
          <mxGeometry width="50" height="50" relative="1" as="geometry">
            <mxPoint x="-75" y="-721" as="sourcePoint" />
            <mxPoint x="55" y="-891" as="targetPoint" />
          </mxGeometry>
        </mxCell>
        <mxCell id="H49a0Rtpe8xY1TAbGnGr-59" value="1" style="text;html=1;align=center;verticalAlign=middle;resizable=0;points=[];autosize=1;strokeColor=none;" parent="1" vertex="1">
          <mxGeometry x="-125" y="-941" width="20" height="20" as="geometry" />
        </mxCell>
        <mxCell id="H49a0Rtpe8xY1TAbGnGr-60" value="1" style="text;html=1;align=center;verticalAlign=middle;resizable=0;points=[];autosize=1;strokeColor=none;" parent="1" vertex="1">
          <mxGeometry x="55" y="-931" width="20" height="20" as="geometry" />
        </mxCell>
        <mxCell id="H49a0Rtpe8xY1TAbGnGr-62" value="premiere_city" style="ellipse;whiteSpace=wrap;html=1;" parent="1" vertex="1">
          <mxGeometry x="125" y="-1031" width="90" height="30" as="geometry" />
        </mxCell>
        <mxCell id="H49a0Rtpe8xY1TAbGnGr-63" value="earning" style="ellipse;whiteSpace=wrap;html=1;" parent="1" vertex="1">
          <mxGeometry x="300" y="-1031" width="50" height="30" as="geometry" />
        </mxCell>
        <mxCell id="H49a0Rtpe8xY1TAbGnGr-64" value="premiere_format" style="ellipse;whiteSpace=wrap;html=1;" parent="1" vertex="1">
          <mxGeometry x="15" y="-1031" width="100" height="30" as="geometry" />
        </mxCell>
        <mxCell id="H49a0Rtpe8xY1TAbGnGr-66" value="" style="endArrow=none;html=1;entryX=0.591;entryY=1.007;entryDx=0;entryDy=0;entryPerimeter=0;exitX=0.5;exitY=0;exitDx=0;exitDy=0;" parent="1" source="H49a0Rtpe8xY1TAbGnGr-55" target="H49a0Rtpe8xY1TAbGnGr-62" edge="1">
          <mxGeometry width="50" height="50" relative="1" as="geometry">
            <mxPoint x="-75" y="-721" as="sourcePoint" />
            <mxPoint x="-25" y="-771" as="targetPoint" />
          </mxGeometry>
        </mxCell>
        <mxCell id="H49a0Rtpe8xY1TAbGnGr-67" value="" style="endArrow=none;html=1;entryX=0;entryY=1;entryDx=0;entryDy=0;exitX=1;exitY=0;exitDx=0;exitDy=0;" parent="1" source="H49a0Rtpe8xY1TAbGnGr-55" target="H49a0Rtpe8xY1TAbGnGr-63" edge="1">
          <mxGeometry width="50" height="50" relative="1" as="geometry">
            <mxPoint x="-75" y="-721" as="sourcePoint" />
            <mxPoint x="325" y="-961" as="targetPoint" />
          </mxGeometry>
        </mxCell>
        <mxCell id="H49a0Rtpe8xY1TAbGnGr-70" value="SEQUEL" style="rounded=0;whiteSpace=wrap;html=1;" parent="1" vertex="1">
          <mxGeometry x="495" y="-941" width="100" height="50" as="geometry" />
        </mxCell>
        <mxCell id="H49a0Rtpe8xY1TAbGnGr-71" value="" style="rhombus;whiteSpace=wrap;html=1;" parent="1" vertex="1">
          <mxGeometry x="305" y="-936" width="60" height="40" as="geometry" />
        </mxCell>
        <mxCell id="H49a0Rtpe8xY1TAbGnGr-72" value="" style="endArrow=none;html=1;entryX=1;entryY=0.5;entryDx=0;entryDy=0;exitX=0;exitY=0.5;exitDx=0;exitDy=0;" parent="1" source="H49a0Rtpe8xY1TAbGnGr-71" target="H49a0Rtpe8xY1TAbGnGr-55" edge="1">
          <mxGeometry width="50" height="50" relative="1" as="geometry">
            <mxPoint x="-155" y="-731" as="sourcePoint" />
            <mxPoint x="-105" y="-781" as="targetPoint" />
          </mxGeometry>
        </mxCell>
        <mxCell id="H49a0Rtpe8xY1TAbGnGr-73" value="" style="endArrow=none;html=1;entryX=1;entryY=0.5;entryDx=0;entryDy=0;exitX=0;exitY=0.5;exitDx=0;exitDy=0;" parent="1" source="H49a0Rtpe8xY1TAbGnGr-70" target="H49a0Rtpe8xY1TAbGnGr-71" edge="1">
          <mxGeometry width="50" height="50" relative="1" as="geometry">
            <mxPoint x="385" y="-916" as="sourcePoint" />
            <mxPoint x="-105" y="-781" as="targetPoint" />
          </mxGeometry>
        </mxCell>
        <mxCell id="H49a0Rtpe8xY1TAbGnGr-74" value="1" style="text;html=1;align=center;verticalAlign=middle;resizable=0;points=[];autosize=1;strokeColor=none;" parent="1" vertex="1">
          <mxGeometry x="185" y="-941" width="20" height="20" as="geometry" />
        </mxCell>
        <mxCell id="H49a0Rtpe8xY1TAbGnGr-76" value="M" style="text;html=1;align=center;verticalAlign=middle;resizable=0;points=[];autosize=1;strokeColor=none;" parent="1" vertex="1">
          <mxGeometry x="465" y="-931" width="30" height="20" as="geometry" />
        </mxCell>
        <mxCell id="H49a0Rtpe8xY1TAbGnGr-79" value="film_id" style="ellipse;whiteSpace=wrap;html=1;" parent="1" vertex="1">
          <mxGeometry x="515" y="-1011" width="50" height="30" as="geometry" />
        </mxCell>
        <mxCell id="H49a0Rtpe8xY1TAbGnGr-80" value="sequel_name" style="ellipse;whiteSpace=wrap;html=1;" parent="1" vertex="1">
          <mxGeometry x="585" y="-1001" width="100" height="30" as="geometry" />
        </mxCell>
        <mxCell id="H49a0Rtpe8xY1TAbGnGr-84" value="" style="endArrow=none;html=1;entryX=0.5;entryY=1;entryDx=0;entryDy=0;exitX=0.5;exitY=0;exitDx=0;exitDy=0;" parent="1" source="H49a0Rtpe8xY1TAbGnGr-70" target="H49a0Rtpe8xY1TAbGnGr-79" edge="1">
          <mxGeometry width="50" height="50" relative="1" as="geometry">
            <mxPoint x="-155" y="-731" as="sourcePoint" />
            <mxPoint x="-105" y="-781" as="targetPoint" />
          </mxGeometry>
        </mxCell>
        <mxCell id="H49a0Rtpe8xY1TAbGnGr-85" value="" style="endArrow=none;html=1;entryX=0.75;entryY=0;entryDx=0;entryDy=0;" parent="1" source="H49a0Rtpe8xY1TAbGnGr-80" target="H49a0Rtpe8xY1TAbGnGr-70" edge="1">
          <mxGeometry width="50" height="50" relative="1" as="geometry">
            <mxPoint x="-155" y="-731" as="sourcePoint" />
            <mxPoint x="-105" y="-781" as="targetPoint" />
          </mxGeometry>
        </mxCell>
        <mxCell id="H49a0Rtpe8xY1TAbGnGr-87" value="DIRECTOR" style="rounded=0;whiteSpace=wrap;html=1;" parent="1" vertex="1">
          <mxGeometry x="455" y="-661" width="100" height="50" as="geometry" />
        </mxCell>
        <mxCell id="H49a0Rtpe8xY1TAbGnGr-88" value="firstname" style="ellipse;whiteSpace=wrap;html=1;" parent="1" vertex="1">
          <mxGeometry x="655" y="-681" width="90" height="30" as="geometry" />
        </mxCell>
        <mxCell id="H49a0Rtpe8xY1TAbGnGr-89" value="lastname" style="ellipse;whiteSpace=wrap;html=1;" parent="1" vertex="1">
          <mxGeometry x="655" y="-646" width="90" height="30" as="geometry" />
        </mxCell>
        <mxCell id="H49a0Rtpe8xY1TAbGnGr-90" value="genre" style="ellipse;whiteSpace=wrap;html=1;" parent="1" vertex="1">
          <mxGeometry x="610" y="-561" width="80" height="40" as="geometry" />
        </mxCell>
        <mxCell id="H49a0Rtpe8xY1TAbGnGr-91" value="expertise" style="ellipse;whiteSpace=wrap;html=1;" parent="1" vertex="1">
          <mxGeometry x="655" y="-611" width="90" height="40" as="geometry" />
        </mxCell>
        <mxCell id="H49a0Rtpe8xY1TAbGnGr-92" value="directed_by" style="rhombus;whiteSpace=wrap;html=1;rotation=-30;" parent="1" vertex="1">
          <mxGeometry x="355" y="-781" width="80" height="70" as="geometry" />
        </mxCell>
        <mxCell id="H49a0Rtpe8xY1TAbGnGr-93" value="" style="endArrow=none;html=1;exitX=0.5;exitY=0;exitDx=0;exitDy=0;entryX=1;entryY=1;entryDx=0;entryDy=0;" parent="1" source="H49a0Rtpe8xY1TAbGnGr-92" target="H49a0Rtpe8xY1TAbGnGr-55" edge="1">
          <mxGeometry width="50" height="50" relative="1" as="geometry">
            <mxPoint x="-155" y="-761" as="sourcePoint" />
            <mxPoint x="175" y="-881" as="targetPoint" />
          </mxGeometry>
        </mxCell>
        <mxCell id="H49a0Rtpe8xY1TAbGnGr-94" value="" style="endArrow=none;html=1;entryX=0.5;entryY=1;entryDx=0;entryDy=0;exitX=0.5;exitY=0;exitDx=0;exitDy=0;" parent="1" source="H49a0Rtpe8xY1TAbGnGr-87" target="H49a0Rtpe8xY1TAbGnGr-92" edge="1">
          <mxGeometry width="50" height="50" relative="1" as="geometry">
            <mxPoint x="-75" y="-761" as="sourcePoint" />
            <mxPoint x="-25" y="-811" as="targetPoint" />
          </mxGeometry>
        </mxCell>
        <mxCell id="H49a0Rtpe8xY1TAbGnGr-95" value="M" style="text;html=1;align=center;verticalAlign=middle;resizable=0;points=[];autosize=1;strokeColor=none;" parent="1" vertex="1">
          <mxGeometry x="175" y="-881" width="30" height="20" as="geometry" />
        </mxCell>
        <mxCell id="H49a0Rtpe8xY1TAbGnGr-96" value="N" style="text;html=1;align=center;verticalAlign=middle;resizable=0;points=[];autosize=1;strokeColor=none;" parent="1" vertex="1">
          <mxGeometry x="495" y="-691" width="20" height="20" as="geometry" />
        </mxCell>
        <mxCell id="H49a0Rtpe8xY1TAbGnGr-97" value="" style="endArrow=none;html=1;entryX=1;entryY=0.75;entryDx=0;entryDy=0;exitX=0;exitY=0.5;exitDx=0;exitDy=0;" parent="1" source="H49a0Rtpe8xY1TAbGnGr-91" target="H49a0Rtpe8xY1TAbGnGr-87" edge="1">
          <mxGeometry width="50" height="50" relative="1" as="geometry">
            <mxPoint x="-75" y="-761" as="sourcePoint" />
            <mxPoint x="-25" y="-811" as="targetPoint" />
          </mxGeometry>
        </mxCell>
        <mxCell id="H49a0Rtpe8xY1TAbGnGr-98" value="" style="endArrow=none;html=1;entryX=1;entryY=1;entryDx=0;entryDy=0;exitX=0.002;exitY=0.25;exitDx=0;exitDy=0;exitPerimeter=0;" parent="1" source="H49a0Rtpe8xY1TAbGnGr-90" target="H49a0Rtpe8xY1TAbGnGr-87" edge="1">
          <mxGeometry width="50" height="50" relative="1" as="geometry">
            <mxPoint x="-75" y="-761" as="sourcePoint" />
            <mxPoint x="-25" y="-811" as="targetPoint" />
          </mxGeometry>
        </mxCell>
        <mxCell id="H49a0Rtpe8xY1TAbGnGr-100" value="" style="endArrow=none;html=1;exitX=0;exitY=0.5;exitDx=0;exitDy=0;entryX=1;entryY=0.25;entryDx=0;entryDy=0;" parent="1" source="H49a0Rtpe8xY1TAbGnGr-88" target="H49a0Rtpe8xY1TAbGnGr-87" edge="1">
          <mxGeometry width="50" height="50" relative="1" as="geometry">
            <mxPoint x="340" y="-571" as="sourcePoint" />
            <mxPoint x="390" y="-621" as="targetPoint" />
          </mxGeometry>
        </mxCell>
        <mxCell id="H49a0Rtpe8xY1TAbGnGr-101" value="" style="endArrow=none;html=1;exitX=0;exitY=0.5;exitDx=0;exitDy=0;entryX=1;entryY=0.5;entryDx=0;entryDy=0;" parent="1" source="H49a0Rtpe8xY1TAbGnGr-89" target="H49a0Rtpe8xY1TAbGnGr-87" edge="1">
          <mxGeometry width="50" height="50" relative="1" as="geometry">
            <mxPoint x="495" y="-551" as="sourcePoint" />
            <mxPoint x="560" y="-636" as="targetPoint" />
          </mxGeometry>
        </mxCell>
        <mxCell id="H49a0Rtpe8xY1TAbGnGr-102" value="film_id" style="ellipse;whiteSpace=wrap;html=1;" parent="1" vertex="1">
          <mxGeometry x="435" y="-851" width="50" height="30" as="geometry" />
        </mxCell>
        <mxCell id="H49a0Rtpe8xY1TAbGnGr-104" value="salary" style="ellipse;whiteSpace=wrap;html=1;" parent="1" vertex="1">
          <mxGeometry x="475" y="-771" width="100" height="30" as="geometry" />
        </mxCell>
        <mxCell id="H49a0Rtpe8xY1TAbGnGr-105" value="director_id" style="ellipse;whiteSpace=wrap;html=1;" parent="1" vertex="1">
          <mxGeometry x="475" y="-821" width="100" height="40" as="geometry" />
        </mxCell>
        <mxCell id="H49a0Rtpe8xY1TAbGnGr-106" value="" style="endArrow=none;html=1;entryX=0;entryY=1;entryDx=0;entryDy=0;exitX=1;exitY=0;exitDx=0;exitDy=0;" parent="1" source="H49a0Rtpe8xY1TAbGnGr-92" target="H49a0Rtpe8xY1TAbGnGr-102" edge="1">
          <mxGeometry width="50" height="50" relative="1" as="geometry">
            <mxPoint x="-75" y="-761" as="sourcePoint" />
            <mxPoint x="-25" y="-811" as="targetPoint" />
          </mxGeometry>
        </mxCell>
        <mxCell id="H49a0Rtpe8xY1TAbGnGr-109" value="" style="endArrow=none;html=1;exitX=0;exitY=0.5;exitDx=0;exitDy=0;entryX=1;entryY=1;entryDx=0;entryDy=0;" parent="1" source="H49a0Rtpe8xY1TAbGnGr-104" target="H49a0Rtpe8xY1TAbGnGr-92" edge="1">
          <mxGeometry width="50" height="50" relative="1" as="geometry">
            <mxPoint x="-75" y="-761" as="sourcePoint" />
            <mxPoint x="455" y="-711" as="targetPoint" />
          </mxGeometry>
        </mxCell>
        <mxCell id="H49a0Rtpe8xY1TAbGnGr-110" value="TV_SERIES" style="rounded=0;whiteSpace=wrap;html=1;" parent="1" vertex="1">
          <mxGeometry x="-545" y="-491" width="100" height="50" as="geometry" />
        </mxCell>
        <mxCell id="H49a0Rtpe8xY1TAbGnGr-111" value="episode_number" style="ellipse;whiteSpace=wrap;html=1;" parent="1" vertex="1">
          <mxGeometry x="-645" y="-561" width="100" height="30" as="geometry" />
        </mxCell>
        <mxCell id="H49a0Rtpe8xY1TAbGnGr-112" value="seasons_number" style="ellipse;whiteSpace=wrap;html=1;" parent="1" vertex="1">
          <mxGeometry x="-695" y="-441" width="100" height="30" as="geometry" />
        </mxCell>
        <mxCell id="H49a0Rtpe8xY1TAbGnGr-115" value="" style="rhombus;whiteSpace=wrap;html=1;rotation=30;" parent="1" vertex="1">
          <mxGeometry x="-375" y="-741" width="50" height="60" as="geometry" />
        </mxCell>
        <mxCell id="H49a0Rtpe8xY1TAbGnGr-116" value="" style="endArrow=none;html=1;exitX=0.5;exitY=0;exitDx=0;exitDy=0;entryX=0.25;entryY=1;entryDx=0;entryDy=0;" parent="1" source="H49a0Rtpe8xY1TAbGnGr-115" target="H49a0Rtpe8xY1TAbGnGr-1" edge="1">
          <mxGeometry width="50" height="50" relative="1" as="geometry">
            <mxPoint x="-75" y="-741" as="sourcePoint" />
            <mxPoint x="-205" y="-881" as="targetPoint" />
          </mxGeometry>
        </mxCell>
        <mxCell id="H49a0Rtpe8xY1TAbGnGr-117" value="" style="endArrow=none;html=1;exitX=0.25;exitY=0;exitDx=0;exitDy=0;entryX=0.5;entryY=1;entryDx=0;entryDy=0;" parent="1" source="H49a0Rtpe8xY1TAbGnGr-110" target="H49a0Rtpe8xY1TAbGnGr-115" edge="1">
          <mxGeometry width="50" height="50" relative="1" as="geometry">
            <mxPoint x="-75" y="-741" as="sourcePoint" />
            <mxPoint x="-25" y="-791" as="targetPoint" />
          </mxGeometry>
        </mxCell>
        <mxCell id="H49a0Rtpe8xY1TAbGnGr-118" value="1" style="text;html=1;align=center;verticalAlign=middle;resizable=0;points=[];autosize=1;strokeColor=none;" parent="1" vertex="1">
          <mxGeometry x="-255" y="-881" width="20" height="20" as="geometry" />
        </mxCell>
        <mxCell id="H49a0Rtpe8xY1TAbGnGr-119" value="1" style="text;html=1;align=center;verticalAlign=middle;resizable=0;points=[];autosize=1;strokeColor=none;" parent="1" vertex="1">
          <mxGeometry x="-535" y="-521" width="20" height="20" as="geometry" />
        </mxCell>
        <mxCell id="H49a0Rtpe8xY1TAbGnGr-126" value="M" style="text;html=1;align=center;verticalAlign=middle;resizable=0;points=[];autosize=1;strokeColor=none;" parent="1" vertex="1">
          <mxGeometry x="-45" y="-521" width="30" height="20" as="geometry" />
        </mxCell>
        <mxCell id="H49a0Rtpe8xY1TAbGnGr-127" value="N" style="text;html=1;align=center;verticalAlign=middle;resizable=0;points=[];autosize=1;strokeColor=none;" parent="1" vertex="1">
          <mxGeometry x="-155" y="-531" width="20" height="20" as="geometry" />
        </mxCell>
        <mxCell id="H49a0Rtpe8xY1TAbGnGr-136" value="actor_film" style="rhombus;whiteSpace=wrap;html=1;rotation=45;" parent="1" vertex="1">
          <mxGeometry x="95" y="-661" width="60" height="120" as="geometry" />
        </mxCell>
        <mxCell id="H49a0Rtpe8xY1TAbGnGr-137" value="" style="endArrow=none;html=1;entryX=0.5;entryY=1;entryDx=0;entryDy=0;" parent="1" source="H49a0Rtpe8xY1TAbGnGr-28" target="H49a0Rtpe8xY1TAbGnGr-136" edge="1">
          <mxGeometry width="50" height="50" relative="1" as="geometry">
            <mxPoint x="-75" y="-671" as="sourcePoint" />
            <mxPoint x="-25" y="-721" as="targetPoint" />
          </mxGeometry>
        </mxCell>
        <mxCell id="H49a0Rtpe8xY1TAbGnGr-139" value="" style="endArrow=none;html=1;exitX=0.25;exitY=1;exitDx=0;exitDy=0;entryX=0.5;entryY=0;entryDx=0;entryDy=0;" parent="1" source="H49a0Rtpe8xY1TAbGnGr-55" target="H49a0Rtpe8xY1TAbGnGr-136" edge="1">
          <mxGeometry width="50" height="50" relative="1" as="geometry">
            <mxPoint x="151.85999999999967" y="-893.1400000000001" as="sourcePoint" />
            <mxPoint x="105" y="-741" as="targetPoint" />
            <Array as="points" />
          </mxGeometry>
        </mxCell>
        <mxCell id="H49a0Rtpe8xY1TAbGnGr-143" value="actor_id" style="ellipse;whiteSpace=wrap;html=1;" parent="1" vertex="1">
          <mxGeometry x="175" y="-591" width="70" height="30" as="geometry" />
        </mxCell>
        <mxCell id="H49a0Rtpe8xY1TAbGnGr-144" value="film_id" style="ellipse;whiteSpace=wrap;html=1;" parent="1" vertex="1">
          <mxGeometry x="175" y="-551" width="70" height="30" as="geometry" />
        </mxCell>
        <mxCell id="H49a0Rtpe8xY1TAbGnGr-147" value="" style="endArrow=none;html=1;entryX=1;entryY=0;entryDx=0;entryDy=0;exitX=0.5;exitY=0;exitDx=0;exitDy=0;" parent="1" source="H49a0Rtpe8xY1TAbGnGr-143" target="H49a0Rtpe8xY1TAbGnGr-136" edge="1">
          <mxGeometry width="50" height="50" relative="1" as="geometry">
            <mxPoint x="55" y="-591" as="sourcePoint" />
            <mxPoint x="55" y="-701" as="targetPoint" />
          </mxGeometry>
        </mxCell>
        <mxCell id="H49a0Rtpe8xY1TAbGnGr-149" value="" style="endArrow=none;html=1;entryX=0;entryY=0.5;entryDx=0;entryDy=0;exitX=1;exitY=1;exitDx=0;exitDy=0;" parent="1" source="H49a0Rtpe8xY1TAbGnGr-136" target="H49a0Rtpe8xY1TAbGnGr-144" edge="1">
          <mxGeometry width="50" height="50" relative="1" as="geometry">
            <mxPoint x="55" y="-591" as="sourcePoint" />
            <mxPoint x="105" y="-641" as="targetPoint" />
          </mxGeometry>
        </mxCell>
        <mxCell id="H49a0Rtpe8xY1TAbGnGr-151" value="" style="endArrow=none;html=1;entryX=1;entryY=0.5;entryDx=0;entryDy=0;exitX=0;exitY=0.5;exitDx=0;exitDy=0;" parent="1" source="H49a0Rtpe8xY1TAbGnGr-105" target="H49a0Rtpe8xY1TAbGnGr-92" edge="1">
          <mxGeometry width="50" height="50" relative="1" as="geometry">
            <mxPoint x="55" y="-691" as="sourcePoint" />
            <mxPoint x="105" y="-741" as="targetPoint" />
          </mxGeometry>
        </mxCell>
        <mxCell id="H49a0Rtpe8xY1TAbGnGr-171" value="" style="endArrow=none;html=1;entryX=0.5;entryY=1;entryDx=0;entryDy=0;exitX=0.25;exitY=0;exitDx=0;exitDy=0;" parent="1" source="H49a0Rtpe8xY1TAbGnGr-55" target="H49a0Rtpe8xY1TAbGnGr-64" edge="1">
          <mxGeometry width="50" height="50" relative="1" as="geometry">
            <mxPoint x="215" y="-781" as="sourcePoint" />
            <mxPoint x="265" y="-831" as="targetPoint" />
          </mxGeometry>
        </mxCell>
        <mxCell id="H49a0Rtpe8xY1TAbGnGr-176" value="oscar" style="rhombus;whiteSpace=wrap;html=1;rotation=-60;" parent="1" vertex="1">
          <mxGeometry x="-25" y="-741" width="90" height="50" as="geometry" />
        </mxCell>
        <mxCell id="H49a0Rtpe8xY1TAbGnGr-177" value="" style="endArrow=none;html=1;entryX=0;entryY=0.5;entryDx=0;entryDy=0;exitX=0.75;exitY=0;exitDx=0;exitDy=0;" parent="1" source="H49a0Rtpe8xY1TAbGnGr-28" target="H49a0Rtpe8xY1TAbGnGr-176" edge="1">
          <mxGeometry width="50" height="50" relative="1" as="geometry">
            <mxPoint x="215" y="-641" as="sourcePoint" />
            <mxPoint x="265" y="-691" as="targetPoint" />
          </mxGeometry>
        </mxCell>
        <mxCell id="H49a0Rtpe8xY1TAbGnGr-178" value="" style="endArrow=none;html=1;entryX=0;entryY=1;entryDx=0;entryDy=0;exitX=1;exitY=0.5;exitDx=0;exitDy=0;" parent="1" source="H49a0Rtpe8xY1TAbGnGr-176" target="H49a0Rtpe8xY1TAbGnGr-55" edge="1">
          <mxGeometry width="50" height="50" relative="1" as="geometry">
            <mxPoint x="215" y="-641" as="sourcePoint" />
            <mxPoint x="265" y="-691" as="targetPoint" />
            <Array as="points" />
          </mxGeometry>
        </mxCell>
        <mxCell id="H49a0Rtpe8xY1TAbGnGr-179" value="M" style="text;html=1;align=center;verticalAlign=middle;resizable=0;points=[];autosize=1;strokeColor=none;" parent="1" vertex="1">
          <mxGeometry x="-95" y="-541" width="30" height="20" as="geometry" />
        </mxCell>
        <mxCell id="H49a0Rtpe8xY1TAbGnGr-180" value="N" style="text;html=1;align=center;verticalAlign=middle;resizable=0;points=[];autosize=1;strokeColor=none;" parent="1" vertex="1">
          <mxGeometry x="65" y="-891" width="20" height="20" as="geometry" />
        </mxCell>
        <mxCell id="H49a0Rtpe8xY1TAbGnGr-181" value="actor_id" style="ellipse;whiteSpace=wrap;html=1;" parent="1" vertex="1">
          <mxGeometry x="-105" y="-681" width="70" height="30" as="geometry" />
        </mxCell>
        <mxCell id="H49a0Rtpe8xY1TAbGnGr-182" value="film_id" style="ellipse;whiteSpace=wrap;html=1;" parent="1" vertex="1">
          <mxGeometry x="-25" y="-821" width="50" height="30" as="geometry" />
        </mxCell>
        <mxCell id="H49a0Rtpe8xY1TAbGnGr-183" value="win_year" style="ellipse;whiteSpace=wrap;html=1;" parent="1" vertex="1">
          <mxGeometry x="70" y="-721" width="55" height="30" as="geometry" />
        </mxCell>
        <mxCell id="H49a0Rtpe8xY1TAbGnGr-184" value="role" style="ellipse;whiteSpace=wrap;html=1;" parent="1" vertex="1">
          <mxGeometry x="65" y="-681" width="50" height="30" as="geometry" />
        </mxCell>
        <mxCell id="H49a0Rtpe8xY1TAbGnGr-185" value="" style="endArrow=none;html=1;entryX=1;entryY=1;entryDx=0;entryDy=0;exitX=0;exitY=0;exitDx=0;exitDy=0;" parent="1" source="H49a0Rtpe8xY1TAbGnGr-183" target="H49a0Rtpe8xY1TAbGnGr-176" edge="1">
          <mxGeometry width="50" height="50" relative="1" as="geometry">
            <mxPoint x="215" y="-641" as="sourcePoint" />
            <mxPoint x="265" y="-691" as="targetPoint" />
          </mxGeometry>
        </mxCell>
        <mxCell id="H49a0Rtpe8xY1TAbGnGr-186" value="" style="endArrow=none;html=1;entryX=0;entryY=1;entryDx=0;entryDy=0;exitX=0;exitY=0.218;exitDx=0;exitDy=0;exitPerimeter=0;" parent="1" source="H49a0Rtpe8xY1TAbGnGr-184" target="H49a0Rtpe8xY1TAbGnGr-176" edge="1">
          <mxGeometry width="50" height="50" relative="1" as="geometry">
            <mxPoint x="215" y="-641" as="sourcePoint" />
            <mxPoint x="265" y="-691" as="targetPoint" />
          </mxGeometry>
        </mxCell>
        <mxCell id="H49a0Rtpe8xY1TAbGnGr-187" value="" style="endArrow=none;html=1;entryX=1;entryY=0;entryDx=0;entryDy=0;exitX=0.087;exitY=0.36;exitDx=0;exitDy=0;exitPerimeter=0;" parent="1" source="H49a0Rtpe8xY1TAbGnGr-176" target="H49a0Rtpe8xY1TAbGnGr-181" edge="1">
          <mxGeometry width="50" height="50" relative="1" as="geometry">
            <mxPoint x="215" y="-641" as="sourcePoint" />
            <mxPoint x="265" y="-691" as="targetPoint" />
          </mxGeometry>
        </mxCell>
        <mxCell id="H49a0Rtpe8xY1TAbGnGr-188" value="" style="endArrow=none;html=1;entryX=1;entryY=1;entryDx=0;entryDy=0;exitX=0.858;exitY=0.324;exitDx=0;exitDy=0;exitPerimeter=0;" parent="1" source="H49a0Rtpe8xY1TAbGnGr-176" target="H49a0Rtpe8xY1TAbGnGr-182" edge="1">
          <mxGeometry width="50" height="50" relative="1" as="geometry">
            <mxPoint x="215" y="-641" as="sourcePoint" />
            <mxPoint x="265" y="-691" as="targetPoint" />
          </mxGeometry>
        </mxCell>
        <mxCell id="H49a0Rtpe8xY1TAbGnGr-189" value="N" style="text;html=1;align=center;verticalAlign=middle;resizable=0;points=[];autosize=1;strokeColor=none;" parent="1" vertex="1">
          <mxGeometry x="95" y="-881" width="20" height="20" as="geometry" />
        </mxCell>
        <mxCell id="H49a0Rtpe8xY1TAbGnGr-191" value="" style="endArrow=none;html=1;entryX=1;entryY=0.5;entryDx=0;entryDy=0;exitX=0;exitY=0.5;exitDx=0;exitDy=0;" parent="1" source="H49a0Rtpe8xY1TAbGnGr-43" target="H49a0Rtpe8xY1TAbGnGr-28" edge="1">
          <mxGeometry width="50" height="50" relative="1" as="geometry">
            <mxPoint x="215" y="-351" as="sourcePoint" />
            <mxPoint x="265" y="-401" as="targetPoint" />
          </mxGeometry>
        </mxCell>
        <mxCell id="H49a0Rtpe8xY1TAbGnGr-192" value="" style="endArrow=none;html=1;entryX=1;entryY=1;entryDx=0;entryDy=0;exitX=0;exitY=0.5;exitDx=0;exitDy=0;" parent="1" source="H49a0Rtpe8xY1TAbGnGr-44" target="H49a0Rtpe8xY1TAbGnGr-28" edge="1">
          <mxGeometry width="50" height="50" relative="1" as="geometry">
            <mxPoint x="215" y="-351" as="sourcePoint" />
            <mxPoint x="265" y="-401" as="targetPoint" />
          </mxGeometry>
        </mxCell>
        <mxCell id="H49a0Rtpe8xY1TAbGnGr-195" value="" style="endArrow=none;html=1;entryX=0.75;entryY=1;entryDx=0;entryDy=0;exitX=0.5;exitY=0;exitDx=0;exitDy=0;" parent="1" source="H49a0Rtpe8xY1TAbGnGr-47" target="H49a0Rtpe8xY1TAbGnGr-28" edge="1">
          <mxGeometry width="50" height="50" relative="1" as="geometry">
            <mxPoint x="215" y="-351" as="sourcePoint" />
            <mxPoint x="265" y="-401" as="targetPoint" />
          </mxGeometry>
        </mxCell>
        <mxCell id="H49a0Rtpe8xY1TAbGnGr-196" value="" style="endArrow=none;html=1;entryX=0.394;entryY=1.011;entryDx=0;entryDy=0;entryPerimeter=0;exitX=0.5;exitY=0;exitDx=0;exitDy=0;" parent="1" source="H49a0Rtpe8xY1TAbGnGr-48" target="H49a0Rtpe8xY1TAbGnGr-28" edge="1">
          <mxGeometry width="50" height="50" relative="1" as="geometry">
            <mxPoint x="215" y="-351" as="sourcePoint" />
            <mxPoint x="265" y="-401" as="targetPoint" />
          </mxGeometry>
        </mxCell>
        <mxCell id="H49a0Rtpe8xY1TAbGnGr-197" value="" style="endArrow=none;html=1;entryX=0;entryY=1;entryDx=0;entryDy=0;exitX=0.704;exitY=0.086;exitDx=0;exitDy=0;exitPerimeter=0;" parent="1" source="H49a0Rtpe8xY1TAbGnGr-46" target="H49a0Rtpe8xY1TAbGnGr-28" edge="1">
          <mxGeometry width="50" height="50" relative="1" as="geometry">
            <mxPoint x="215" y="-351" as="sourcePoint" />
            <mxPoint x="265" y="-401" as="targetPoint" />
          </mxGeometry>
        </mxCell>
        <mxCell id="H49a0Rtpe8xY1TAbGnGr-199" value="" style="endArrow=none;html=1;entryX=0;entryY=1;entryDx=0;entryDy=0;exitX=1;exitY=0.5;exitDx=0;exitDy=0;" parent="1" source="H49a0Rtpe8xY1TAbGnGr-112" target="H49a0Rtpe8xY1TAbGnGr-110" edge="1">
          <mxGeometry width="50" height="50" relative="1" as="geometry">
            <mxPoint x="-155" y="-351" as="sourcePoint" />
            <mxPoint x="-105" y="-401" as="targetPoint" />
          </mxGeometry>
        </mxCell>
        <mxCell id="H49a0Rtpe8xY1TAbGnGr-201" value="" style="endArrow=none;html=1;entryX=1;entryY=1;entryDx=0;entryDy=0;" parent="1" target="H49a0Rtpe8xY1TAbGnGr-111" edge="1">
          <mxGeometry width="50" height="50" relative="1" as="geometry">
            <mxPoint x="-545" y="-491" as="sourcePoint" />
            <mxPoint x="-105" y="-401" as="targetPoint" />
          </mxGeometry>
        </mxCell>
        <mxCell id="H49a0Rtpe8xY1TAbGnGr-207" value="critic_film" style="rhombus;whiteSpace=wrap;html=1;" parent="1" vertex="1">
          <mxGeometry x="335" y="-561" width="80" height="120" as="geometry" />
        </mxCell>
        <mxCell id="H49a0Rtpe8xY1TAbGnGr-208" value="" style="endArrow=none;html=1;entryX=0.5;entryY=1;entryDx=0;entryDy=0;exitX=0.5;exitY=0;exitDx=0;exitDy=0;" parent="1" source="H49a0Rtpe8xY1TAbGnGr-207" target="H49a0Rtpe8xY1TAbGnGr-55" edge="1">
          <mxGeometry width="50" height="50" relative="1" as="geometry">
            <mxPoint x="-195" y="-511" as="sourcePoint" />
            <mxPoint x="-145" y="-561" as="targetPoint" />
          </mxGeometry>
        </mxCell>
        <mxCell id="H49a0Rtpe8xY1TAbGnGr-209" value="" style="endArrow=none;html=1;entryX=0.5;entryY=1;entryDx=0;entryDy=0;exitX=0.5;exitY=0;exitDx=0;exitDy=0;" parent="1" source="H49a0Rtpe8xY1TAbGnGr-210" target="H49a0Rtpe8xY1TAbGnGr-207" edge="1">
          <mxGeometry width="50" height="50" relative="1" as="geometry">
            <mxPoint x="365" y="-51" as="sourcePoint" />
            <mxPoint x="-145" y="-221" as="targetPoint" />
          </mxGeometry>
        </mxCell>
        <mxCell id="H49a0Rtpe8xY1TAbGnGr-210" value="CRITIC" style="rounded=0;whiteSpace=wrap;html=1;" parent="1" vertex="1">
          <mxGeometry x="255" y="-241" width="100" height="50" as="geometry" />
        </mxCell>
        <mxCell id="H49a0Rtpe8xY1TAbGnGr-212" value="firstname" style="ellipse;whiteSpace=wrap;html=1;" parent="1" vertex="1">
          <mxGeometry x="415" y="-351" width="90" height="30" as="geometry" />
        </mxCell>
        <mxCell id="H49a0Rtpe8xY1TAbGnGr-213" value="lastname" style="ellipse;whiteSpace=wrap;html=1;" parent="1" vertex="1">
          <mxGeometry x="415" y="-301" width="90" height="30" as="geometry" />
        </mxCell>
        <mxCell id="H49a0Rtpe8xY1TAbGnGr-214" value="username" style="ellipse;whiteSpace=wrap;html=1;" parent="1" vertex="1">
          <mxGeometry x="415" y="-251" width="90" height="30" as="geometry" />
        </mxCell>
        <mxCell id="H49a0Rtpe8xY1TAbGnGr-215" value="password" style="ellipse;whiteSpace=wrap;html=1;" parent="1" vertex="1">
          <mxGeometry x="415" y="-201" width="90" height="30" as="geometry" />
        </mxCell>
        <mxCell id="H49a0Rtpe8xY1TAbGnGr-218" value="" style="endArrow=none;html=1;entryX=1;entryY=0.75;entryDx=0;entryDy=0;exitX=0;exitY=0.5;exitDx=0;exitDy=0;" parent="1" source="H49a0Rtpe8xY1TAbGnGr-215" target="H49a0Rtpe8xY1TAbGnGr-210" edge="1">
          <mxGeometry width="50" height="50" relative="1" as="geometry">
            <mxPoint x="-195" y="-171" as="sourcePoint" />
            <mxPoint x="-145" y="-221" as="targetPoint" />
          </mxGeometry>
        </mxCell>
        <mxCell id="H49a0Rtpe8xY1TAbGnGr-219" value="" style="endArrow=none;html=1;entryX=0.75;entryY=0;entryDx=0;entryDy=0;exitX=0;exitY=1;exitDx=0;exitDy=0;" parent="1" source="H49a0Rtpe8xY1TAbGnGr-212" target="H49a0Rtpe8xY1TAbGnGr-210" edge="1">
          <mxGeometry width="50" height="50" relative="1" as="geometry">
            <mxPoint x="-195" y="-171" as="sourcePoint" />
            <mxPoint x="-145" y="-221" as="targetPoint" />
          </mxGeometry>
        </mxCell>
        <mxCell id="H49a0Rtpe8xY1TAbGnGr-220" value="" style="endArrow=none;html=1;exitX=1;exitY=0;exitDx=0;exitDy=0;entryX=0;entryY=0.5;entryDx=0;entryDy=0;" parent="1" source="H49a0Rtpe8xY1TAbGnGr-210" target="H49a0Rtpe8xY1TAbGnGr-213" edge="1">
          <mxGeometry width="50" height="50" relative="1" as="geometry">
            <mxPoint x="-195" y="-171" as="sourcePoint" />
            <mxPoint x="-145" y="-221" as="targetPoint" />
          </mxGeometry>
        </mxCell>
        <mxCell id="H49a0Rtpe8xY1TAbGnGr-221" value="" style="endArrow=none;html=1;entryX=1;entryY=0.5;entryDx=0;entryDy=0;exitX=0;exitY=0.5;exitDx=0;exitDy=0;" parent="1" source="H49a0Rtpe8xY1TAbGnGr-214" target="H49a0Rtpe8xY1TAbGnGr-210" edge="1">
          <mxGeometry width="50" height="50" relative="1" as="geometry">
            <mxPoint x="-195" y="-171" as="sourcePoint" />
            <mxPoint x="-145" y="-221" as="targetPoint" />
          </mxGeometry>
        </mxCell>
        <mxCell id="H49a0Rtpe8xY1TAbGnGr-223" value="film_id" style="ellipse;whiteSpace=wrap;html=1;" parent="1" vertex="1">
          <mxGeometry x="465" y="-511" width="90" height="30" as="geometry" />
        </mxCell>
        <mxCell id="H49a0Rtpe8xY1TAbGnGr-224" value="rating" style="ellipse;whiteSpace=wrap;html=1;" parent="1" vertex="1">
          <mxGeometry x="465" y="-471" width="90" height="30" as="geometry" />
        </mxCell>
        <mxCell id="H49a0Rtpe8xY1TAbGnGr-225" value="critic_id" style="ellipse;whiteSpace=wrap;html=1;" parent="1" vertex="1">
          <mxGeometry x="465" y="-561" width="90" height="30" as="geometry" />
        </mxCell>
        <mxCell id="H49a0Rtpe8xY1TAbGnGr-226" value="" style="endArrow=none;html=1;exitX=1;exitY=0;exitDx=0;exitDy=0;entryX=0;entryY=1;entryDx=0;entryDy=0;" parent="1" source="H49a0Rtpe8xY1TAbGnGr-207" target="H49a0Rtpe8xY1TAbGnGr-225" edge="1">
          <mxGeometry width="50" height="50" relative="1" as="geometry">
            <mxPoint x="-195" y="-171" as="sourcePoint" />
            <mxPoint x="465" y="-411" as="targetPoint" />
          </mxGeometry>
        </mxCell>
        <mxCell id="H49a0Rtpe8xY1TAbGnGr-227" value="" style="endArrow=none;html=1;entryX=1;entryY=0.5;entryDx=0;entryDy=0;exitX=0;exitY=0.5;exitDx=0;exitDy=0;" parent="1" source="H49a0Rtpe8xY1TAbGnGr-223" target="H49a0Rtpe8xY1TAbGnGr-207" edge="1">
          <mxGeometry width="50" height="50" relative="1" as="geometry">
            <mxPoint x="-195" y="-171" as="sourcePoint" />
            <mxPoint x="-145" y="-221" as="targetPoint" />
          </mxGeometry>
        </mxCell>
        <mxCell id="H49a0Rtpe8xY1TAbGnGr-228" value="" style="endArrow=none;html=1;entryX=0.654;entryY=0.857;entryDx=0;entryDy=0;entryPerimeter=0;exitX=0;exitY=0.5;exitDx=0;exitDy=0;" parent="1" source="H49a0Rtpe8xY1TAbGnGr-224" target="H49a0Rtpe8xY1TAbGnGr-207" edge="1">
          <mxGeometry width="50" height="50" relative="1" as="geometry">
            <mxPoint x="-195" y="-171" as="sourcePoint" />
            <mxPoint x="-145" y="-221" as="targetPoint" />
          </mxGeometry>
        </mxCell>
        <mxCell id="H49a0Rtpe8xY1TAbGnGr-230" value="M" style="text;html=1;align=center;verticalAlign=middle;resizable=0;points=[];autosize=1;strokeColor=none;" parent="1" vertex="1">
          <mxGeometry x="135" y="-891" width="30" height="20" as="geometry" />
        </mxCell>
        <mxCell id="H49a0Rtpe8xY1TAbGnGr-231" value="N" style="text;html=1;align=center;verticalAlign=middle;resizable=0;points=[];autosize=1;strokeColor=none;" parent="1" vertex="1">
          <mxGeometry x="285" y="-271" width="20" height="20" as="geometry" />
        </mxCell>
        <mxCell id="H49a0Rtpe8xY1TAbGnGr-235" value="actor_series" style="rhombus;whiteSpace=wrap;html=1;" parent="1" vertex="1">
          <mxGeometry x="-390" y="-500" width="105" height="59" as="geometry" />
        </mxCell>
        <mxCell id="H49a0Rtpe8xY1TAbGnGr-236" value="" style="endArrow=none;html=1;entryX=1;entryY=0.5;entryDx=0;entryDy=0;exitX=0;exitY=0.5;exitDx=0;exitDy=0;" parent="1" source="H49a0Rtpe8xY1TAbGnGr-235" target="H49a0Rtpe8xY1TAbGnGr-110" edge="1">
          <mxGeometry width="50" height="50" relative="1" as="geometry">
            <mxPoint x="-195" y="-511" as="sourcePoint" />
            <mxPoint x="-145" y="-561" as="targetPoint" />
          </mxGeometry>
        </mxCell>
        <mxCell id="H49a0Rtpe8xY1TAbGnGr-237" value="" style="endArrow=none;html=1;entryX=1;entryY=0.5;entryDx=0;entryDy=0;" parent="1" target="H49a0Rtpe8xY1TAbGnGr-235" edge="1">
          <mxGeometry width="50" height="50" relative="1" as="geometry">
            <mxPoint x="-155" y="-466" as="sourcePoint" />
            <mxPoint x="-145" y="-561" as="targetPoint" />
          </mxGeometry>
        </mxCell>
        <mxCell id="H49a0Rtpe8xY1TAbGnGr-238" value="M" style="text;html=1;align=center;verticalAlign=middle;resizable=0;points=[];autosize=1;strokeColor=none;" parent="1" vertex="1">
          <mxGeometry x="-445" y="-491" width="30" height="20" as="geometry" />
        </mxCell>
        <mxCell id="H49a0Rtpe8xY1TAbGnGr-239" value="N" style="text;html=1;align=center;verticalAlign=middle;resizable=0;points=[];autosize=1;strokeColor=none;" parent="1" vertex="1">
          <mxGeometry x="-185" y="-491" width="20" height="20" as="geometry" />
        </mxCell>
        <mxCell id="H49a0Rtpe8xY1TAbGnGr-242" value="series_id" style="ellipse;whiteSpace=wrap;html=1;" parent="1" vertex="1">
          <mxGeometry x="-325" y="-411" width="80" height="30" as="geometry" />
        </mxCell>
        <mxCell id="H49a0Rtpe8xY1TAbGnGr-243" value="actor_id" style="ellipse;whiteSpace=wrap;html=1;" parent="1" vertex="1">
          <mxGeometry x="-445" y="-411" width="90" height="30" as="geometry" />
        </mxCell>
        <mxCell id="H49a0Rtpe8xY1TAbGnGr-252" value="" style="endArrow=none;html=1;exitX=0.5;exitY=0;exitDx=0;exitDy=0;entryX=1;entryY=1;entryDx=0;entryDy=0;" parent="1" source="H49a0Rtpe8xY1TAbGnGr-242" target="H49a0Rtpe8xY1TAbGnGr-235" edge="1">
          <mxGeometry width="50" height="50" relative="1" as="geometry">
            <mxPoint x="-195" y="-511" as="sourcePoint" />
            <mxPoint x="-145" y="-561" as="targetPoint" />
          </mxGeometry>
        </mxCell>
        <mxCell id="H49a0Rtpe8xY1TAbGnGr-254" value="" style="endArrow=none;html=1;exitX=0.5;exitY=0;exitDx=0;exitDy=0;entryX=0;entryY=1;entryDx=0;entryDy=0;" parent="1" source="H49a0Rtpe8xY1TAbGnGr-243" target="H49a0Rtpe8xY1TAbGnGr-235" edge="1">
          <mxGeometry width="50" height="50" relative="1" as="geometry">
            <mxPoint x="-195" y="-511" as="sourcePoint" />
            <mxPoint x="-145" y="-561" as="targetPoint" />
          </mxGeometry>
        </mxCell>
        <mxCell id="H49a0Rtpe8xY1TAbGnGr-256" value="actor_critic" style="rhombus;whiteSpace=wrap;html=1;rotation=-30;" parent="1" vertex="1">
          <mxGeometry x="-35" y="-291" width="70" height="120" as="geometry" />
        </mxCell>
        <mxCell id="H49a0Rtpe8xY1TAbGnGr-257" value="" style="endArrow=none;html=1;entryX=0;entryY=0.5;entryDx=0;entryDy=0;exitX=0.5;exitY=1;exitDx=0;exitDy=0;" parent="1" source="H49a0Rtpe8xY1TAbGnGr-256" target="H49a0Rtpe8xY1TAbGnGr-210" edge="1">
          <mxGeometry width="50" height="50" relative="1" as="geometry">
            <mxPoint x="-195" y="-171" as="sourcePoint" />
            <mxPoint x="-145" y="-221" as="targetPoint" />
          </mxGeometry>
        </mxCell>
        <mxCell id="H49a0Rtpe8xY1TAbGnGr-258" value="" style="endArrow=none;html=1;entryX=0.5;entryY=1;entryDx=0;entryDy=0;exitX=0.5;exitY=0;exitDx=0;exitDy=0;" parent="1" source="H49a0Rtpe8xY1TAbGnGr-256" target="H49a0Rtpe8xY1TAbGnGr-28" edge="1">
          <mxGeometry width="50" height="50" relative="1" as="geometry">
            <mxPoint x="-195" y="-171" as="sourcePoint" />
            <mxPoint x="-145" y="-221" as="targetPoint" />
          </mxGeometry>
        </mxCell>
        <mxCell id="H49a0Rtpe8xY1TAbGnGr-259" value="M" style="text;html=1;align=center;verticalAlign=middle;resizable=0;points=[];autosize=1;strokeColor=none;" parent="1" vertex="1">
          <mxGeometry x="215" y="-231" width="30" height="20" as="geometry" />
        </mxCell>
        <mxCell id="H49a0Rtpe8xY1TAbGnGr-260" value="N" style="text;html=1;align=center;verticalAlign=middle;resizable=0;points=[];autosize=1;strokeColor=none;" parent="1" vertex="1">
          <mxGeometry x="-115" y="-441" width="20" height="20" as="geometry" />
        </mxCell>
        <mxCell id="H49a0Rtpe8xY1TAbGnGr-262" value="actor_id" style="ellipse;whiteSpace=wrap;html=1;" parent="1" vertex="1">
          <mxGeometry x="-175" y="-271" width="70" height="30" as="geometry" />
        </mxCell>
        <mxCell id="H49a0Rtpe8xY1TAbGnGr-264" value="critic_id" style="ellipse;whiteSpace=wrap;html=1;" parent="1" vertex="1">
          <mxGeometry x="-215" y="-231" width="90" height="30" as="geometry" />
        </mxCell>
        <mxCell id="H49a0Rtpe8xY1TAbGnGr-265" value="naturalness" style="ellipse;whiteSpace=wrap;html=1;" parent="1" vertex="1">
          <mxGeometry x="-95" y="-101" width="90" height="30" as="geometry" />
        </mxCell>
        <mxCell id="H49a0Rtpe8xY1TAbGnGr-266" value="devotion" style="ellipse;whiteSpace=wrap;html=1;" parent="1" vertex="1">
          <mxGeometry x="-190" y="-121" width="90" height="30" as="geometry" />
        </mxCell>
        <mxCell id="H49a0Rtpe8xY1TAbGnGr-268" value="expression" style="ellipse;whiteSpace=wrap;html=1;" parent="1" vertex="1">
          <mxGeometry x="-225" y="-191" width="90" height="30" as="geometry" />
        </mxCell>
        <mxCell id="H49a0Rtpe8xY1TAbGnGr-272" value="" style="endArrow=none;html=1;entryX=1;entryY=0.5;entryDx=0;entryDy=0;exitX=0.19;exitY=0.36;exitDx=0;exitDy=0;exitPerimeter=0;" parent="1" source="H49a0Rtpe8xY1TAbGnGr-256" target="H49a0Rtpe8xY1TAbGnGr-264" edge="1">
          <mxGeometry width="50" height="50" relative="1" as="geometry">
            <mxPoint x="-195" y="-171" as="sourcePoint" />
            <mxPoint x="-145" y="-221" as="targetPoint" />
          </mxGeometry>
        </mxCell>
        <mxCell id="H49a0Rtpe8xY1TAbGnGr-273" value="" style="endArrow=none;html=1;entryX=0;entryY=0.5;entryDx=0;entryDy=0;exitX=1;exitY=0.5;exitDx=0;exitDy=0;" parent="1" source="H49a0Rtpe8xY1TAbGnGr-268" target="H49a0Rtpe8xY1TAbGnGr-256" edge="1">
          <mxGeometry width="50" height="50" relative="1" as="geometry">
            <mxPoint x="-195" y="-171" as="sourcePoint" />
            <mxPoint x="-145" y="-221" as="targetPoint" />
          </mxGeometry>
        </mxCell>
        <mxCell id="H49a0Rtpe8xY1TAbGnGr-275" value="" style="endArrow=none;html=1;exitX=0.5;exitY=0;exitDx=0;exitDy=0;entryX=0;entryY=1;entryDx=0;entryDy=0;" parent="1" source="H49a0Rtpe8xY1TAbGnGr-266" target="H49a0Rtpe8xY1TAbGnGr-256" edge="1">
          <mxGeometry width="50" height="50" relative="1" as="geometry">
            <mxPoint x="-195" y="-171" as="sourcePoint" />
            <mxPoint x="-145" y="-221" as="targetPoint" />
          </mxGeometry>
        </mxCell>
        <mxCell id="H49a0Rtpe8xY1TAbGnGr-276" value="" style="endArrow=none;html=1;entryX=1;entryY=1;entryDx=0;entryDy=0;exitX=0;exitY=0;exitDx=0;exitDy=0;" parent="1" source="H49a0Rtpe8xY1TAbGnGr-256" target="H49a0Rtpe8xY1TAbGnGr-262" edge="1">
          <mxGeometry width="50" height="50" relative="1" as="geometry">
            <mxPoint x="-195" y="-171" as="sourcePoint" />
            <mxPoint x="-145" y="-221" as="targetPoint" />
          </mxGeometry>
        </mxCell>
        <mxCell id="H49a0Rtpe8xY1TAbGnGr-277" value="" style="endArrow=none;html=1;entryX=0.639;entryY=-0.033;entryDx=0;entryDy=0;exitX=0.409;exitY=0.886;exitDx=0;exitDy=0;exitPerimeter=0;entryPerimeter=0;" parent="1" source="H49a0Rtpe8xY1TAbGnGr-256" target="H49a0Rtpe8xY1TAbGnGr-265" edge="1">
          <mxGeometry width="50" height="50" relative="1" as="geometry">
            <mxPoint x="-195" y="-171" as="sourcePoint" />
            <mxPoint x="-145" y="-221" as="targetPoint" />
          </mxGeometry>
        </mxCell>
        <mxCell id="9iTavqI95lWbE_RFoItm-1" value="movie_id" style="ellipse;whiteSpace=wrap;html=1;" parent="1" vertex="1">
          <mxGeometry x="225" y="-1031" width="60" height="30" as="geometry" />
        </mxCell>
        <mxCell id="qSiWPl3AoEjufEaa8YYp-3" value="channel_name" style="ellipse;whiteSpace=wrap;html=1;" parent="1" vertex="1">
          <mxGeometry x="-645" y="-391" width="100" height="30" as="geometry" />
        </mxCell>
        <mxCell id="qSiWPl3AoEjufEaa8YYp-4" value="" style="endArrow=none;html=1;exitX=0.6;exitY=0.02;exitDx=0;exitDy=0;exitPerimeter=0;" parent="1" source="qSiWPl3AoEjufEaa8YYp-3" edge="1">
          <mxGeometry width="50" height="50" relative="1" as="geometry">
            <mxPoint x="-305" y="-261" as="sourcePoint" />
            <mxPoint x="-503" y="-441" as="targetPoint" />
          </mxGeometry>
        </mxCell>
        <mxCell id="qSiWPl3AoEjufEaa8YYp-5" value="movie_id" style="ellipse;whiteSpace=wrap;html=1;" parent="1" vertex="1">
          <mxGeometry x="-725" y="-531" width="80" height="30" as="geometry" />
        </mxCell>
        <mxCell id="qSiWPl3AoEjufEaa8YYp-6" value="" style="endArrow=none;html=1;entryX=1;entryY=0.5;entryDx=0;entryDy=0;exitX=0;exitY=0.25;exitDx=0;exitDy=0;" parent="1" source="H49a0Rtpe8xY1TAbGnGr-110" target="qSiWPl3AoEjufEaa8YYp-5" edge="1">
          <mxGeometry width="50" height="50" relative="1" as="geometry">
            <mxPoint x="-305" y="-361" as="sourcePoint" />
            <mxPoint x="-255" y="-411" as="targetPoint" />
          </mxGeometry>
        </mxCell>
        <mxCell id="wyZPhQEYvZoX8HBc8ayL-2" value="&lt;u&gt;id&lt;/u&gt;" style="ellipse;whiteSpace=wrap;html=1;" parent="1" vertex="1">
          <mxGeometry x="655" y="-721" width="90" height="30" as="geometry" />
        </mxCell>
        <mxCell id="wyZPhQEYvZoX8HBc8ayL-3" value="" style="endArrow=none;html=1;exitX=0;exitY=0.5;exitDx=0;exitDy=0;entryX=0.75;entryY=0;entryDx=0;entryDy=0;" parent="1" source="wyZPhQEYvZoX8HBc8ayL-2" target="H49a0Rtpe8xY1TAbGnGr-87" edge="1">
          <mxGeometry width="50" height="50" relative="1" as="geometry">
            <mxPoint x="665" y="-660" as="sourcePoint" />
            <mxPoint x="565" y="-651" as="targetPoint" />
          </mxGeometry>
        </mxCell>
        <mxCell id="wyZPhQEYvZoX8HBc8ayL-7" value="&lt;u&gt;id&lt;/u&gt;" style="ellipse;whiteSpace=wrap;html=1;" parent="1" vertex="1">
          <mxGeometry x="-35" y="-991" width="90" height="30" as="geometry" />
        </mxCell>
        <mxCell id="wyZPhQEYvZoX8HBc8ayL-9" value="" style="endArrow=none;html=1;entryX=1;entryY=0.5;entryDx=0;entryDy=0;exitX=0;exitY=0;exitDx=0;exitDy=0;" parent="1" source="H49a0Rtpe8xY1TAbGnGr-55" target="wyZPhQEYvZoX8HBc8ayL-7" edge="1">
          <mxGeometry width="50" height="50" relative="1" as="geometry">
            <mxPoint x="145" y="-931" as="sourcePoint" />
            <mxPoint x="70" y="-991" as="targetPoint" />
          </mxGeometry>
        </mxCell>
        <mxCell id="wyZPhQEYvZoX8HBc8ayL-12" value="&lt;u&gt;id&lt;/u&gt;" style="ellipse;whiteSpace=wrap;html=1;" parent="1" vertex="1">
          <mxGeometry x="-385" y="-941" width="90" height="30" as="geometry" />
        </mxCell>
        <mxCell id="wyZPhQEYvZoX8HBc8ayL-14" value="" style="endArrow=none;html=1;entryX=0;entryY=0.25;entryDx=0;entryDy=0;exitX=1;exitY=0.5;exitDx=0;exitDy=0;" parent="1" source="wyZPhQEYvZoX8HBc8ayL-12" target="H49a0Rtpe8xY1TAbGnGr-1" edge="1">
          <mxGeometry width="50" height="50" relative="1" as="geometry">
            <mxPoint x="-320" y="-966" as="sourcePoint" />
            <mxPoint x="-235" y="-931" as="targetPoint" />
          </mxGeometry>
        </mxCell>
        <mxCell id="wyZPhQEYvZoX8HBc8ayL-15" value="&lt;u&gt;id&lt;/u&gt;" style="ellipse;whiteSpace=wrap;html=1;" parent="1" vertex="1">
          <mxGeometry x="-725" y="-491" width="90" height="30" as="geometry" />
        </mxCell>
        <mxCell id="wyZPhQEYvZoX8HBc8ayL-16" value="" style="endArrow=none;html=1;entryX=1;entryY=0.5;entryDx=0;entryDy=0;exitX=0;exitY=0.5;exitDx=0;exitDy=0;" parent="1" source="H49a0Rtpe8xY1TAbGnGr-110" target="wyZPhQEYvZoX8HBc8ayL-15" edge="1">
          <mxGeometry width="50" height="50" relative="1" as="geometry">
            <mxPoint x="-540" y="-468" as="sourcePoint" />
            <mxPoint x="-635" y="-506" as="targetPoint" />
          </mxGeometry>
        </mxCell>
        <mxCell id="wyZPhQEYvZoX8HBc8ayL-18" value="&lt;u&gt;id&lt;/u&gt;" style="ellipse;whiteSpace=wrap;html=1;" parent="1" vertex="1">
          <mxGeometry x="15" y="-491" width="90" height="30" as="geometry" />
        </mxCell>
        <mxCell id="wyZPhQEYvZoX8HBc8ayL-19" value="" style="endArrow=none;html=1;entryX=1;entryY=0.25;entryDx=0;entryDy=0;exitX=0;exitY=0.5;exitDx=0;exitDy=0;" parent="1" source="wyZPhQEYvZoX8HBc8ayL-18" target="H49a0Rtpe8xY1TAbGnGr-28" edge="1">
          <mxGeometry width="50" height="50" relative="1" as="geometry">
            <mxPoint x="40" y="-416" as="sourcePoint" />
            <mxPoint x="-45" y="-466" as="targetPoint" />
          </mxGeometry>
        </mxCell>
        <mxCell id="wyZPhQEYvZoX8HBc8ayL-21" value="&lt;u&gt;id&lt;/u&gt;" style="ellipse;whiteSpace=wrap;html=1;" parent="1" vertex="1">
          <mxGeometry x="405" y="-151" width="90" height="30" as="geometry" />
        </mxCell>
        <mxCell id="wyZPhQEYvZoX8HBc8ayL-22" value="" style="endArrow=none;html=1;entryX=0.222;entryY=0.133;entryDx=0;entryDy=0;exitX=0.75;exitY=1;exitDx=0;exitDy=0;entryPerimeter=0;" parent="1" source="H49a0Rtpe8xY1TAbGnGr-210" target="wyZPhQEYvZoX8HBc8ayL-21" edge="1">
          <mxGeometry width="50" height="50" relative="1" as="geometry">
            <mxPoint x="473" y="34" as="sourcePoint" />
            <mxPoint x="430" y="9" as="targetPoint" />
          </mxGeometry>
        </mxCell>
        <mxCell id="fbXbK2jJ_gNUCQBaa_Kq-4" value="&lt;u&gt;id&lt;/u&gt;" style="ellipse;whiteSpace=wrap;html=1;" parent="1" vertex="1">
          <mxGeometry x="-385" y="-371" width="90" height="30" as="geometry" />
        </mxCell>
        <mxCell id="fbXbK2jJ_gNUCQBaa_Kq-5" value="" style="endArrow=none;html=1;exitX=0.5;exitY=0;exitDx=0;exitDy=0;entryX=0.433;entryY=0.903;entryDx=0;entryDy=0;entryPerimeter=0;" parent="1" source="fbXbK2jJ_gNUCQBaa_Kq-4" target="H49a0Rtpe8xY1TAbGnGr-235" edge="1">
          <mxGeometry width="50" height="50" relative="1" as="geometry">
            <mxPoint x="-397" y="-403" as="sourcePoint" />
            <mxPoint x="-335" y="-446" as="targetPoint" />
          </mxGeometry>
        </mxCell>
        <mxCell id="fbXbK2jJ_gNUCQBaa_Kq-6" value="&lt;u&gt;id&lt;/u&gt;" style="ellipse;whiteSpace=wrap;html=1;" parent="1" vertex="1">
          <mxGeometry x="15" y="-311" width="90" height="30" as="geometry" />
        </mxCell>
        <mxCell id="fbXbK2jJ_gNUCQBaa_Kq-7" value="" style="endArrow=none;html=1;entryX=0.838;entryY=0.325;entryDx=0;entryDy=0;exitX=0.5;exitY=1;exitDx=0;exitDy=0;entryPerimeter=0;" parent="1" source="fbXbK2jJ_gNUCQBaa_Kq-6" target="H49a0Rtpe8xY1TAbGnGr-256" edge="1">
          <mxGeometry width="50" height="50" relative="1" as="geometry">
            <mxPoint x="-20" y="-238" as="sourcePoint" />
            <mxPoint x="-110" y="-240" as="targetPoint" />
          </mxGeometry>
        </mxCell>
        <mxCell id="fbXbK2jJ_gNUCQBaa_Kq-9" value="&lt;u&gt;id&lt;/u&gt;" style="ellipse;whiteSpace=wrap;html=1;" parent="1" vertex="1">
          <mxGeometry x="195" y="-641" width="90" height="30" as="geometry" />
        </mxCell>
        <mxCell id="fbXbK2jJ_gNUCQBaa_Kq-10" value="" style="endArrow=none;html=1;entryX=0.67;entryY=0.128;entryDx=0;entryDy=0;exitX=0;exitY=0.5;exitDx=0;exitDy=0;entryPerimeter=0;" parent="1" source="fbXbK2jJ_gNUCQBaa_Kq-9" target="H49a0Rtpe8xY1TAbGnGr-136" edge="1">
          <mxGeometry width="50" height="50" relative="1" as="geometry">
            <mxPoint x="215" y="-581" as="sourcePoint" />
            <mxPoint x="161" y="-603" as="targetPoint" />
          </mxGeometry>
        </mxCell>
        <mxCell id="fbXbK2jJ_gNUCQBaa_Kq-11" value="&lt;u&gt;id&lt;/u&gt;" style="ellipse;whiteSpace=wrap;html=1;" parent="1" vertex="1">
          <mxGeometry x="235" y="-471" width="90" height="30" as="geometry" />
        </mxCell>
        <mxCell id="fbXbK2jJ_gNUCQBaa_Kq-12" value="" style="endArrow=none;html=1;entryX=1;entryY=0.5;entryDx=0;entryDy=0;exitX=0;exitY=1;exitDx=0;exitDy=0;" parent="1" source="H49a0Rtpe8xY1TAbGnGr-207" target="fbXbK2jJ_gNUCQBaa_Kq-11" edge="1">
          <mxGeometry width="50" height="50" relative="1" as="geometry">
            <mxPoint x="476" y="-453" as="sourcePoint" />
            <mxPoint x="392" y="-457" as="targetPoint" />
          </mxGeometry>
        </mxCell>
        <mxCell id="fbXbK2jJ_gNUCQBaa_Kq-13" value="&lt;u&gt;id&lt;/u&gt;" style="ellipse;whiteSpace=wrap;html=1;" parent="1" vertex="1">
          <mxGeometry x="355" y="-861" width="60" height="30" as="geometry" />
        </mxCell>
        <mxCell id="fbXbK2jJ_gNUCQBaa_Kq-14" value="" style="endArrow=none;html=1;entryX=0.5;entryY=1;entryDx=0;entryDy=0;exitX=0.62;exitY=0.134;exitDx=0;exitDy=0;exitPerimeter=0;" parent="1" source="H49a0Rtpe8xY1TAbGnGr-92" target="fbXbK2jJ_gNUCQBaa_Kq-13" edge="1">
          <mxGeometry width="50" height="50" relative="1" as="geometry">
            <mxPoint x="410" y="-761" as="sourcePoint" />
            <mxPoint x="447" y="-815" as="targetPoint" />
          </mxGeometry>
        </mxCell>
        <mxCell id="fbXbK2jJ_gNUCQBaa_Kq-15" value="&lt;u&gt;id&lt;/u&gt;" style="ellipse;whiteSpace=wrap;html=1;" parent="1" vertex="1">
          <mxGeometry x="435" y="-1011" width="60" height="30" as="geometry" />
        </mxCell>
        <mxCell id="fbXbK2jJ_gNUCQBaa_Kq-17" value="" style="endArrow=none;html=1;entryX=0.692;entryY=1;entryDx=0;entryDy=0;exitX=0.25;exitY=0;exitDx=0;exitDy=0;entryPerimeter=0;" parent="1" source="H49a0Rtpe8xY1TAbGnGr-70" target="fbXbK2jJ_gNUCQBaa_Kq-15" edge="1">
          <mxGeometry width="50" height="50" relative="1" as="geometry">
            <mxPoint x="550" y="-931" as="sourcePoint" />
            <mxPoint x="553" y="-971" as="targetPoint" />
          </mxGeometry>
        </mxCell>
        <mxCell id="fbXbK2jJ_gNUCQBaa_Kq-18" value="&lt;u&gt;id&lt;/u&gt;" style="ellipse;whiteSpace=wrap;html=1;" parent="1" vertex="1">
          <mxGeometry x="-75" y="-781" width="60" height="30" as="geometry" />
        </mxCell>
        <mxCell id="fbXbK2jJ_gNUCQBaa_Kq-20" value="" style="endArrow=none;html=1;entryX=1;entryY=0.5;entryDx=0;entryDy=0;exitX=0.646;exitY=0.117;exitDx=0;exitDy=0;exitPerimeter=0;" parent="1" source="H49a0Rtpe8xY1TAbGnGr-176" target="fbXbK2jJ_gNUCQBaa_Kq-18" edge="1">
          <mxGeometry width="50" height="50" relative="1" as="geometry">
            <mxPoint x="38" y="-742" as="sourcePoint" />
            <mxPoint x="28" y="-785" as="targetPoint" />
          </mxGeometry>
        </mxCell>
        <mxCell id="fbXbK2jJ_gNUCQBaa_Kq-21" value="&lt;u&gt;id&lt;/u&gt;" style="ellipse;whiteSpace=wrap;html=1;" parent="1" vertex="1">
          <mxGeometry x="-235" y="-651" width="60" height="30" as="geometry" />
        </mxCell>
        <mxCell id="fbXbK2jJ_gNUCQBaa_Kq-22" value="" style="endArrow=none;html=1;entryX=0.636;entryY=0.084;entryDx=0;entryDy=0;entryPerimeter=0;exitX=0.156;exitY=0.337;exitDx=0;exitDy=0;exitPerimeter=0;" parent="1" source="H49a0Rtpe8xY1TAbGnGr-29" target="fbXbK2jJ_gNUCQBaa_Kq-21" edge="1">
          <mxGeometry width="50" height="50" relative="1" as="geometry">
            <mxPoint x="-175" y="-681" as="sourcePoint" />
            <mxPoint x="-161" y="-703" as="targetPoint" />
          </mxGeometry>
        </mxCell>
      </root>
    </mxGraphModel>
  </diagram>
</mxfile>
